<?xml version="1.0" standalone="no"?>
<!DOCTYPE svg PUBLIC "-//W3C//DTD SVG 20010904//EN"
 "http://www.w3.org/TR/2001/REC-SVG-20010904/DTD/svg10.dtd">
<svg version="1.0" xmlns="http://www.w3.org/2000/svg"
 width="690.000000pt" height="1280.000000pt" viewBox="0 0 690.000000 1280.000000"
 preserveAspectRatio="xMidYMid meet">
<metadata>
Created by potrace 1.15, written by Peter Selinger 2001-2017
</metadata>
<g transform="translate(0.000000,1280.000000) scale(0.100000,-0.100000)"
fill="#009688" stroke="none">
<path d="M2850 12794 c-571 -20 -946 -41 -1315 -75 -829 -76 -1387 -201 -1506
-336 l-29 -34 0 -501 0 -501 24 -32 c29 -38 112 -83 221 -121 44 -15 83 -30
88 -34 4 -3 -4 -21 -18 -40 -44 -59 -58 -112 -53 -195 6 -90 39 -152 106 -200
l43 -30 -6 -350 c-6 -357 -18 -838 -35 -1435 -5 -184 -17 -598 -27 -920 -23
-807 -23 -2460 0 -3270 10 -322 22 -736 27 -920 17 -588 29 -1075 36 -1450 l6
-365 -47 -35 c-29 -21 -60 -57 -79 -90 -29 -51 -31 -62 -31 -153 l0 -97 -35
-11 c-67 -22 -172 -82 -196 -114 l-24 -32 0 -500 c0 -495 0 -501 21 -527 116
-147 724 -279 1639 -356 618 -51 976 -64 1790 -64 692 0 890 5 1385 34 1103
67 1901 216 2040 382 l25 30 0 500 0 501 -24 32 c-24 32 -129 92 -196 114
l-35 11 0 92 c0 78 -4 100 -22 133 -28 50 -48 73 -93 107 l-35 27 7 423 c6
391 13 664 53 2078 40 1447 40 2323 0 3770 -8 289 -22 764 -30 1056 -8 292
-18 726 -21 965 l-7 435 26 17 c136 89 168 283 66 410 -17 21 -29 39 -28 40 2
1 43 15 91 31 112 37 197 84 226 126 l22 33 0 498 0 498 -29 34 c-78 89 -351
175 -776 246 -394 66 -958 118 -1645 152 -207 10 -1405 20 -1600 13z m-1850
-1759 c96 -13 189 -26 205 -27 l30 -3 5 -1450 c5 -1449 5 -1450 27 -1531 77
-287 236 -539 509 -810 272 -270 601 -498 1029 -713 156 -78 190 -99 187 -114
-2 -11 5 -29 17 -41 27 -29 51 -88 51 -128 0 -39 -29 -106 -56 -130 -10 -9
-109 -62 -219 -117 -836 -418 -1386 -972 -1523 -1534 -27 -115 -20 -553 38
-2192 6 -153 10 -316 10 -360 l0 -81 -113 -12 c-118 -13 -307 -39 -343 -47
-18 -4 -22 1 -28 33 -9 58 -62 139 -113 175 l-46 32 7 345 c8 393 22 960 36
1450 5 184 17 598 27 920 21 720 24 2497 5 3110 -33 1085 -72 2594 -72 2783
l0 102 35 23 c45 29 92 94 106 146 13 50 13 133 0 169 -13 33 -28 33 189 2z
m5096 9 c-17 -44 -18 -124 -1 -179 14 -49 28 -70 80 -121 l63 -62 -4 -208
c-10 -499 -26 -1137 -44 -1784 -11 -382 -24 -882 -30 -1110 -13 -533 -13
-1916 0 -2445 11 -429 45 -1703 55 -2030 3 -104 10 -401 15 -660 l9 -470 -50
-44 c-50 -43 -99 -123 -99 -160 0 -11 -4 -22 -8 -25 -4 -3 -64 3 -133 14 -68
10 -175 24 -238 31 l-113 13 6 220 c4 122 11 379 16 571 5 193 15 530 21 750
6 220 12 542 13 715 1 297 0 320 -21 399 -67 248 -191 466 -401 705 -291 332
-784 676 -1282 896 -137 60 -170 90 -170 154 0 47 38 111 85 142 14 9 25 21
25 28 0 6 85 52 187 101 432 208 751 430 1053 734 274 275 420 508 498 789
l27 97 5 1449 5 1450 135 17 c74 10 160 22 190 27 89 15 113 15 106 -4z"/>
</g>
</svg>
