<?xml version="1.0" standalone="no"?>
<!DOCTYPE svg PUBLIC "-//W3C//DTD SVG 20010904//EN"
 "http://www.w3.org/TR/2001/REC-SVG-20010904/DTD/svg10.dtd">
<svg version="1.0" xmlns="http://www.w3.org/2000/svg"
 width="20" height="20" viewBox="0 0 985.000000 1280.000000"
 preserveAspectRatio="xMidYMid meet">
<metadata>
Created by potrace 1.15, written by Peter Selinger 2001-2017
</metadata>
<g transform="translate(0.000000,1280.000000) scale(0.100000,-0.100000)"
fill="#FF5722" stroke="black">
<path d="M8400 12786 c0 -10 -28 -15 -112 -20 -62 -4 -194 -18 -293 -32 -121
-17 -265 -28 -439 -34 -272 -10 -453 -26 -1061 -90 -443 -47 -702 -67 -1050
-80 -293 -11 -541 -31 -755 -60 -80 -11 -237 -27 -350 -35 -113 -9 -232 -20
-265 -26 -33 -5 -176 -16 -319 -24 -142 -8 -263 -18 -268 -21 -5 -4 -92 -10
-194 -15 -101 -5 -272 -18 -381 -29 -109 -11 -229 -20 -268 -20 -42 0 -81 -6
-99 -15 -22 -12 -67 -15 -196 -15 -149 0 -170 -2 -191 -19 -21 -16 -106 -26
-629 -76 -333 -31 -790 -69 -1016 -84 -451 -31 -443 -29 -486 -99 -17 -28 -23
-55 -26 -121 -5 -106 7 -125 103 -167 l65 -28 0 -86 0 -86 76 -109 c42 -61
112 -147 155 -192 51 -54 90 -106 114 -153 48 -96 56 -99 208 -77 67 10 154
20 192 24 98 8 101 3 108 -163 3 -100 9 -141 24 -175 18 -41 68 -94 121 -129
19 -13 24 -31 37 -130 20 -156 42 -279 65 -375 23 -94 40 -244 40 -347 0 -40
11 -138 25 -217 14 -79 25 -185 26 -235 0 -50 4 -140 9 -201 5 -71 3 -228 -7
-445 -8 -184 -12 -387 -8 -450 4 -88 2 -129 -10 -174 -39 -150 -36 -991 4
-1196 12 -58 21 -128 21 -156 0 -38 7 -61 30 -97 39 -62 61 -105 71 -140 8
-27 4 -34 -38 -73 -45 -41 -47 -45 -51 -106 -4 -79 14 -111 95 -166 97 -66 94
-36 40 -356 l-47 -281 5 -380 c9 -580 17 -643 150 -1112 42 -147 89 -335 105
-418 167 -853 194 -1019 209 -1274 7 -126 12 -166 25 -180 13 -14 16 -42 16
-147 0 -146 -8 -170 -77 -220 -65 -48 -94 -78 -115 -119 -19 -36 -20 -53 -16
-232 l4 -193 -49 0 c-34 0 -57 -6 -74 -20 -17 -14 -41 -20 -72 -20 -59 0 -90
-29 -121 -113 -24 -63 -53 -88 -144 -123 -111 -43 -227 -196 -283 -372 -16
-52 -32 -86 -42 -89 -9 -2 -39 -15 -67 -28 l-52 -24 -7 -104 c-7 -115 2 -153
47 -195 l25 -23 389 40 c280 29 411 39 469 34 99 -7 288 11 459 43 97 18 163
24 270 24 77 0 200 7 271 14 72 8 218 17 325 21 164 5 211 11 295 32 89 24
121 27 300 29 136 1 251 9 360 23 263 36 303 39 475 46 91 3 230 13 310 21 80
8 280 26 445 39 165 14 406 39 535 55 349 43 526 58 935 80 572 29 788 43
1075 70 173 16 423 36 555 45 430 28 767 55 925 75 85 11 207 24 270 30 64 6
140 20 171 31 65 23 65 23 75 165 11 143 -15 174 -149 174 -104 0 -117 10
-117 94 0 53 -4 64 -50 130 -104 150 -205 227 -319 242 l-53 7 -29 63 c-38 85
-67 114 -116 114 -21 -1 -49 -7 -63 -15 -39 -22 -172 -20 -193 3 -21 23 -42
108 -63 257 -9 66 -20 128 -26 138 -5 9 -30 28 -57 42 -31 15 -61 42 -83 72
l-35 49 -7 329 c-3 182 -10 355 -15 385 -9 62 4 568 19 735 6 61 15 166 21
235 13 140 6 760 -11 1025 -5 88 -14 294 -19 458 -9 267 -11 300 -29 330 -12
20 -22 60 -26 109 -8 103 -53 242 -137 419 -38 81 -69 156 -69 167 0 13 23 41
61 74 92 81 107 123 70 203 -22 49 -64 86 -143 126 -49 25 -58 33 -53 50 28
86 65 261 65 303 0 28 -16 211 -36 406 -32 316 -38 359 -59 390 -17 28 -25 61
-34 155 -14 144 -63 389 -131 657 -83 328 -131 599 -137 768 -4 137 -3 152 26
270 51 206 45 281 -53 676 -24 99 -50 218 -57 264 -14 99 -7 251 14 301 13 31
20 37 58 43 58 9 108 42 125 82 10 24 14 80 14 197 l0 164 98 5 c127 6 162 24
231 117 30 40 72 83 100 100 26 17 67 57 91 88 85 115 121 223 135 408 8 102
21 125 70 125 43 0 95 18 123 43 20 18 22 30 22 112 0 79 -3 97 -22 125 -42
61 -74 70 -245 70 -122 0 -153 -3 -153 -14z m-1127 -1702 c71 -37 214 -195
275 -304 55 -98 164 -372 169 -425 3 -27 11 -59 19 -70 29 -41 10 -381 -24
-418 -14 -16 -26 -18 -82 -13 -36 3 -109 8 -162 12 -90 5 -96 7 -86 24 7 11
30 20 62 25 69 9 108 29 131 68 18 29 20 51 20 222 -1 120 -5 206 -13 232 -25
86 -142 312 -173 334 -41 29 -222 78 -288 79 -62 0 -91 -18 -91 -58 0 -14 38
-107 84 -206 111 -239 120 -271 113 -411 -2 -60 -10 -123 -17 -140 l-13 -30
-7 25 c-5 14 -8 59 -9 100 -1 42 -8 103 -16 135 -21 84 -77 194 -119 234 -35
33 -39 35 -126 39 l-90 4 -10 -26 c-16 -44 -12 -89 14 -127 21 -31 25 -51 31
-170 7 -122 5 -140 -14 -198 -25 -73 -21 -145 10 -161 43 -24 105 -11 204 40
l95 51 0 -36 c0 -34 1 -35 37 -35 l36 0 -19 -21 c-41 -47 -151 -81 -314 -99
-52 -5 -130 -21 -173 -35 -43 -14 -91 -25 -107 -25 l-30 0 0 100 c0 55 -7 195
-16 312 -20 272 -17 905 5 931 25 30 85 40 296 47 368 11 363 11 398 -6z
m-5218 -84 c36 -22 76 -75 100 -132 8 -21 20 -38 25 -38 31 0 150 -147 150
-185 0 -6 -34 -51 -75 -100 -82 -97 -138 -201 -200 -370 -60 -160 -78 -268
-71 -410 15 -304 126 -565 365 -865 158 -197 687 -739 910 -931 185 -160 207
-180 277 -263 33 -38 124 -126 204 -195 226 -197 723 -646 848 -767 l112 -109
-20 -57 c-22 -63 -28 -197 -10 -243 5 -14 21 -30 36 -35 22 -9 25 -14 20 -38
-14 -56 -59 -132 -149 -254 -52 -69 -116 -165 -142 -214 -27 -49 -110 -181
-185 -294 -75 -113 -154 -232 -175 -265 -21 -33 -59 -87 -86 -120 -26 -34 -59
-87 -73 -119 -14 -32 -49 -87 -77 -122 -28 -35 -72 -101 -98 -146 -26 -46 -88
-144 -136 -218 -49 -74 -142 -225 -208 -335 -65 -110 -158 -256 -206 -325 -48
-69 -112 -161 -141 -205 -29 -44 -72 -102 -95 -130 -72 -86 -178 -279 -223
-405 -17 -47 -47 -124 -67 -172 -36 -89 -74 -238 -75 -295 0 -42 -9 -63 -27
-63 -13 0 -15 11 -9 73 12 136 25 731 25 1178 1 246 6 492 11 548 12 118 5
193 -46 454 -19 98 -41 240 -49 315 -13 123 -30 204 -104 486 -12 44 -21 95
-21 114 0 22 -8 44 -20 57 -34 36 -100 174 -100 209 0 26 9 41 39 69 59 53 73
79 73 139 1 87 -46 148 -113 148 -19 0 -21 4 -16 38 4 20 19 66 34 102 25 61
27 76 31 255 4 209 -9 474 -33 660 -31 238 -126 787 -150 867 -15 50 -31 141
-40 228 -8 87 -22 169 -35 205 -50 142 -81 302 -117 595 -15 124 -18 226 -17
703 l1 558 58 59 59 59 0 113 c0 62 -3 134 -7 161 -5 26 -5 47 -1 47 4 0 21
-9 39 -20z m3723 -62 c56 -151 87 -365 101 -695 7 -157 12 -198 26 -220 14
-21 23 -84 41 -297 13 -149 24 -281 24 -292 0 -18 -11 -24 -62 -38 -35 -10
-139 -40 -232 -68 -164 -48 -173 -50 -350 -59 -243 -11 -792 -11 -1166 1 -261
9 -332 15 -495 41 -148 24 -206 38 -265 64 -41 18 -113 45 -160 60 -103 34
-255 99 -453 194 -221 106 -236 111 -631 179 l-28 5 5 66 c5 69 57 233 123
389 40 95 112 219 171 297 44 56 165 158 173 145 3 -5 367 24 830 66 654 59
831 78 855 92 25 14 77 18 328 24 274 8 300 10 325 28 23 17 32 18 66 9 22 -6
56 -8 75 -4 41 8 586 62 643 64 35 1 37 -1 56 -51z m1485 -222 c39 -16 120
-101 172 -180 54 -80 68 -179 53 -358 l-11 -127 -75 -36 c-41 -19 -76 -35 -79
-35 -3 0 -2 17 2 38 4 20 7 99 6 174 l-1 138 -59 162 c-33 90 -63 180 -66 201
-8 42 2 47 58 23z m-237 -332 c49 -50 56 -87 42 -237 l-11 -128 -38 -20 c-21
-10 -41 -19 -44 -19 -4 0 -3 46 0 103 4 60 2 131 -5 172 -6 39 -13 93 -17 122
-5 50 -5 52 17 46 12 -3 37 -21 56 -39z m374 -1651 c0 -115 -7 -403 -15 -640
-25 -714 -25 -695 29 -911 25 -101 46 -199 46 -217 0 -28 4 -35 20 -35 18 0
20 -7 20 -56 0 -60 -8 -79 -53 -136 -53 -66 -32 -131 78 -238 36 -36 73 -78
81 -93 16 -31 16 -34 -27 -152 -27 -76 -29 -96 -49 -429 -12 -193 -19 -382
-15 -420 3 -39 10 -156 15 -261 7 -137 17 -222 35 -305 14 -63 29 -163 35
-221 11 -134 26 -196 94 -406 58 -179 90 -298 101 -377 l7 -48 -32 18 c-54 33
-473 477 -530 564 -46 69 -78 201 -52 212 5 2 -6 179 -23 393 -17 215 -32 399
-33 410 -3 63 -17 146 -61 380 -47 249 -52 266 -110 400 -43 98 -65 162 -73
214 -11 73 -11 75 13 90 66 44 89 72 89 111 0 77 -47 145 -107 156 -18 3 -35
9 -37 13 -9 15 19 137 64 276 87 269 96 339 75 600 -20 249 -32 347 -61 479
-13 60 -24 123 -24 140 0 17 -9 45 -20 61 -27 40 -26 94 3 131 12 17 108 120
212 228 177 184 275 276 296 276 5 0 9 -93 9 -207z m-1370 -1505 c12 -56 64
-168 160 -343 33 -60 60 -117 60 -126 0 -9 -18 -24 -42 -35 l-43 -19 -3 -82
c-3 -93 3 -111 67 -188 28 -34 41 -59 41 -80 0 -32 -110 -757 -116 -764 -29
-32 -511 489 -623 674 l-33 54 20 28 c79 112 84 183 22 286 -24 39 -38 73 -34
80 4 6 111 137 236 290 258 312 267 319 288 225z m-656 -969 c31 -33 116 -133
188 -222 73 -89 220 -252 328 -362 108 -110 215 -224 238 -253 46 -59 54 -102
25 -135 -17 -18 -16 -22 10 -96 15 -42 27 -96 27 -119 0 -22 9 -112 20 -199
11 -87 25 -210 30 -273 5 -63 21 -176 35 -250 13 -74 25 -154 25 -178 0 -26 8
-54 19 -70 13 -18 21 -52 25 -104 6 -86 24 -172 66 -323 15 -55 33 -134 40
-175 6 -41 25 -118 40 -170 16 -54 31 -133 35 -185 3 -49 15 -137 27 -195 19
-98 22 -240 5 -256 -3 -3 -36 4 -72 16 -74 25 -116 28 -190 18 -49 -8 -50 -7
-68 23 -10 18 -20 29 -23 26 -4 -3 -56 12 -117 34 -90 32 -124 39 -184 39 -54
0 -84 5 -113 20 -22 11 -45 20 -53 20 -17 0 -47 63 -47 100 0 28 2 29 26 20
34 -13 40 -13 58 6 22 21 20 28 -14 67 -60 69 -115 70 -122 4 -2 -24 -15 -40
-53 -70 -50 -38 -51 -38 -120 -32 -79 6 -84 4 -114 -45 -21 -34 -22 -35 -87
-35 -63 0 -67 -1 -69 -25 -6 -49 -66 -161 -92 -171 -28 -10 -43 -5 -43 16 0
17 -38 45 -60 45 -9 0 -40 -16 -70 -35 -30 -19 -67 -35 -81 -35 -17 0 -39 -11
-57 -29 -18 -19 -51 -36 -88 -46 -32 -8 -75 -20 -95 -25 -20 -6 -72 -34 -115
-64 -99 -67 -131 -83 -188 -96 -34 -7 -56 -21 -88 -56 -46 -49 -172 -148 -244
-190 -25 -15 -86 -39 -137 -54 -51 -15 -160 -48 -243 -74 -83 -25 -213 -62
-288 -81 -133 -34 -143 -35 -325 -35 -182 0 -188 1 -208 22 -50 56 -53 71 -53
328 0 293 19 490 56 561 13 26 46 105 75 176 72 181 103 239 216 403 55 80
123 183 151 230 27 47 62 96 77 110 15 14 38 48 52 75 14 28 53 95 88 150 34
55 93 154 130 220 37 66 121 201 185 300 64 99 173 270 240 380 158 257 264
414 335 495 59 67 119 165 295 480 169 302 248 410 301 410 26 0 112 -87 105
-105 -17 -46 -16 -111 2 -147 17 -32 18 -45 10 -90 -7 -37 -6 -64 2 -91 12
-42 97 -137 122 -137 9 0 26 12 37 26 l20 26 -41 55 -41 56 32 57 c38 69 38
80 6 118 -31 37 -32 73 -4 147 30 82 62 115 109 115 34 0 44 -7 94 -61z m2015
-2224 c93 -107 311 -390 380 -492 96 -143 235 -462 266 -608 20 -96 23 -292 6
-354 -7 -24 -23 -54 -36 -67 -23 -23 -30 -24 -153 -24 -92 0 -191 9 -338 30
-171 25 -217 29 -252 20 -57 -14 -76 -2 -96 58 -45 134 -46 387 -5 977 16 242
30 491 30 554 l0 115 56 -55 c30 -30 94 -99 142 -154z m-4739 -2067 c65 -171
147 -290 250 -360 49 -33 49 -33 50 -89 0 -42 -5 -63 -20 -82 -20 -25 -112
-97 -124 -97 -3 0 -6 12 -6 28 0 15 -7 82 -16 150 l-17 123 -58 30 c-32 16
-65 29 -74 29 -8 0 -17 10 -19 23 -6 28 -46 378 -46 403 0 36 28 -20 80 -158z"/>
<path d="M5075 5458 c-14 -43 -10 -53 23 -56 26 -3 32 0 32 17 0 33 -11 51
-31 51 -11 0 -22 -6 -24 -12z"/>
<path d="M5129 5276 c-42 -29 -79 -83 -79 -115 0 -28 34 -61 63 -61 29 0 94
61 103 95 3 14 2 42 -3 62 -11 47 -35 53 -84 19z"/>
<path d="M5168 5089 c-10 -5 -18 -21 -18 -34 0 -21 5 -25 28 -25 34 0 52 16
52 47 0 17 -6 23 -22 23 -13 0 -31 -5 -40 -11z"/>
<path d="M5114 4963 c20 -135 19 -148 -9 -181 -29 -34 -30 -59 -3 -76 22 -14
49 11 94 87 30 51 34 67 34 126 0 78 -3 81 -77 81 l-45 0 6 -37z"/>
<path d="M5244 4750 c-34 -13 -64 -59 -64 -97 0 -42 15 -73 36 -73 34 0 103
105 104 158 0 18 -5 22 -27 21 -16 0 -38 -4 -49 -9z"/>
<path d="M5247 4519 c-13 -8 -15 -14 -7 -29 14 -27 12 -56 -5 -70 -20 -17 -19
-57 3 -68 46 -25 98 34 88 99 -12 75 -34 94 -79 68z"/>
<path d="M5127 4503 c-4 -3 -7 -18 -7 -33 0 -24 3 -26 35 -22 40 5 49 14 40
42 -6 20 -53 29 -68 13z"/>
<path d="M5144 4296 c-55 -24 -83 -93 -52 -124 18 -18 100 -15 127 4 33 24 53
77 41 109 -8 21 -16 25 -47 25 -21 -1 -52 -7 -69 -14z"/>
<path d="M5286 4153 c8 -31 20 -43 47 -43 13 0 17 8 17 35 0 33 -2 35 -35 35
-34 0 -35 -1 -29 -27z"/>
<path d="M5200 4105 c0 -22 4 -25 35 -25 29 0 33 3 28 18 -15 40 -63 45 -63 7z"/>
<path d="M5215 4023 c-11 -2 -30 -6 -42 -9 -19 -3 -23 -11 -23 -39 0 -39 13
-43 68 -24 25 9 52 47 52 75 0 5 -28 3 -55 -3z"/>
<path d="M5338 4019 c-21 -12 -25 -77 -5 -83 68 -22 69 -21 82 57 6 37 6 37
-27 37 -18 0 -41 -5 -50 -11z"/>
<path d="M5127 3884 c-4 -4 -7 -20 -7 -35 0 -22 6 -30 24 -35 45 -11 61 -2 61
36 0 33 -2 35 -35 38 -20 2 -39 0 -43 -4z"/>
<path d="M5344 3775 c-10 -56 -1 -67 53 -63 46 3 48 4 51 36 4 44 -12 62 -59
62 -36 0 -39 -2 -45 -35z"/>
<path d="M5180 3655 c0 -33 2 -35 35 -35 33 0 35 2 35 35 0 33 -2 35 -35 35
-33 0 -35 -2 -35 -35z"/>
<path d="M5291 3618 c-10 -28 -11 -26 28 -38 26 -7 33 -6 42 11 13 26 -4 49
-38 49 -15 0 -27 -8 -32 -22z"/>
<path d="M5102 3553 c3 -38 3 -38 48 -38 39 0 45 3 48 23 5 34 -15 52 -60 52
l-39 0 3 -37z"/>
<path d="M5380 3458 c0 -7 -24 -32 -54 -56 -49 -38 -55 -47 -58 -85 -2 -32 -7
-41 -18 -38 -8 2 -47 6 -85 9 -59 3 -73 1 -87 -15 -14 -15 -15 -23 -5 -43 9
-19 32 -32 92 -52 43 -14 83 -24 87 -22 4 3 8 21 8 41 0 33 2 35 26 29 15 -4
39 -10 55 -13 l29 -5 0 64 c0 64 0 65 31 74 18 5 38 18 45 30 13 19 11 24 -26
58 -22 20 -40 31 -40 24z"/>
<path d="M5420 3284 c0 -34 1 -35 33 -32 28 3 32 7 35 36 3 31 2 32 -32 32
-35 0 -36 -1 -36 -36z"/>
<path d="M5536 3143 c10 -49 13 -53 39 -53 21 0 25 5 25 28 0 34 -16 52 -47
52 -20 0 -23 -4 -17 -27z"/>
<path d="M4998 3078 c-35 -43 -68 -99 -68 -116 0 -5 19 -32 42 -61 53 -65 86
-69 111 -16 21 44 22 79 2 95 -19 16 -19 40 -1 66 8 11 12 31 9 47 -4 22 -11
27 -33 27 -20 0 -37 -11 -62 -42z"/>
<path d="M5178 3074 c-17 -9 -31 -27 -36 -47 -8 -32 -8 -32 31 -35 22 -2 51
-1 64 3 23 5 63 58 63 83 0 17 -88 15 -122 -4z"/>
<path d="M5388 3079 c-22 -13 -23 -45 -2 -53 9 -3 31 -6 50 -6 27 0 34 4 34
19 0 41 -44 62 -82 40z"/>
<path d="M5890 2955 c0 -31 3 -35 25 -35 22 0 25 4 25 35 0 31 -3 35 -25 35
-22 0 -25 -4 -25 -35z"/>
<path d="M6007 2934 c-4 -4 -7 -20 -7 -36 0 -27 2 -28 45 -28 46 0 58 15 37
47 -10 15 -64 28 -75 17z"/>
<path d="M4807 2843 c-4 -3 -7 -15 -7 -25 0 -14 8 -18 40 -18 36 0 40 3 40 25
0 22 -4 25 -33 25 -19 0 -37 -3 -40 -7z"/>
</g>
</svg>
